<svg width="192" height="65" viewBox="0 0 192 65" fill="none" xmlns="http://www.w3.org/2000/svg">
<path d="M6.77173 22.6932V64.1823L10.9777 62.1328V26.1704L15.1836 26.258V60.0833L19.3895 58.0075V26.293L23.5954 26.2667V55.9931L27.8013 53.9436V24.261L6.77173 22.6932Z" fill="#373EAE"/>
<path d="M34.7408 15.0384V19.8993H0V15.0384H4.46163V13.3129L7.96216 11.57V15.0384H12.6178V9.25774L7.96216 11.57V8.67092L23.1017 0V4.04643L16.1095 7.52356V15.0384H23.1017V4.04643L30.094 7.52356V15.0384H34.7408Z" fill="#373EAE"/>
<path d="M55.9731 26.3193V14.688H62.1277V16.8776H58.345V19.1198H60.9197V21.3094H58.345V26.3105H55.9731V26.3193Z" fill="#373EAE"/>
<path d="M62.1982 22.2465C62.1982 19.8379 64.0675 18.0249 66.4659 18.0249C68.8554 18.0249 70.7335 19.8379 70.7335 22.2465C70.7335 24.6551 68.8642 26.4681 66.4659 26.4681C64.0675 26.4681 62.1982 24.6551 62.1982 22.2465ZM68.4322 22.2465C68.4322 21.0203 67.6474 20.1007 66.4571 20.1007C65.2491 20.1007 64.4643 21.0116 64.4643 22.2465C64.4643 23.4902 65.2843 24.4099 66.4571 24.4099C67.6474 24.4099 68.4322 23.499 68.4322 22.2465Z" fill="#373EAE"/>
<path d="M74.7014 26.3193H72.3647V18.2089H74.7102V18.7607C74.7102 18.9446 74.6749 19.2424 74.6308 19.5577C75.0982 18.6731 75.8388 18.0162 76.9057 18.0162V20.2934C75.6889 20.2934 74.719 20.9941 74.719 22.3167V26.3193H74.7014Z" fill="#373EAE"/>
<path d="M86.2258 26.3193H83.8804V25.7675C83.8804 25.6361 83.898 25.4347 83.9333 25.2069C83.3954 25.9689 82.5578 26.5207 81.4556 26.5207C79.7626 26.5207 78.4929 25.2069 78.4929 23.0348V18.2177H80.8472V22.9035C80.8472 24.0333 81.5702 24.6114 82.355 24.6114C83.0604 24.6114 83.8275 24.0596 83.8804 22.9648V18.2177H86.2258V26.3193Z" fill="#373EAE"/>
<path d="M88.3687 26.3193V18.2089H90.7141V18.6205C90.7141 18.7694 90.6788 19.0322 90.6436 19.2862C91.1285 18.5067 91.9133 18.0074 92.8832 18.0074C94.0735 18.0074 94.7878 18.5592 95.1757 19.3387C95.7577 18.5592 96.6659 18.0074 97.7681 18.0074C99.4434 18.0074 100.457 19.1373 100.457 21.0817V26.3105H98.1119V21.2569C98.1119 20.3722 97.4771 19.9256 96.8422 19.9256C96.2074 19.9256 95.5725 20.3722 95.5725 21.3182V26.3193H93.2271V21.2043C93.2271 20.3722 92.6451 19.9781 92.0191 19.9781C91.3842 19.9781 90.7317 20.4073 90.6965 21.2393V26.3193H88.3687Z" fill="#373EAE"/>
<path d="M107.89 26.3193V14.688H115.015V16.7988H110.262V19.1286H113.586V21.2218H110.262V24.2085H115.015V26.3193H107.89Z" fill="#373EAE"/>
<path d="M119.424 26.3193H117.078V18.2089H119.424V18.7607C119.424 18.8921 119.406 19.0935 119.371 19.3212C119.909 18.5592 120.729 18.0074 121.848 18.0074C123.541 18.0074 124.811 19.3212 124.811 21.4933V26.3105H122.457V21.6247C122.457 20.4949 121.734 19.9168 120.949 19.9168C120.244 19.9168 119.459 20.4773 119.424 21.5634V26.3193Z" fill="#373EAE"/>
<path d="M127.588 18.2177V15.3274H129.934V18.2177H131.089V20.3811H129.934V26.3281H127.588V20.3811H126.451V18.2177H127.588Z" fill="#373EAE"/>
<path d="M135.066 26.3193H132.72V18.2089H135.066V18.7607C135.066 18.9446 135.03 19.2424 134.986 19.5577C135.454 18.6731 136.194 18.0162 137.261 18.0162V20.2934C136.044 20.2934 135.074 20.9941 135.074 22.3167V26.3193H135.066Z" fill="#373EAE"/>
<path d="M140.78 22.7633C140.947 24.1121 141.785 24.6113 142.702 24.6113C143.601 24.6113 144.227 24.1996 144.624 23.6128L146.176 24.7252C145.303 25.89 144.421 26.4856 142.561 26.4856C140.171 26.4856 138.417 24.7427 138.417 22.2465C138.417 19.9343 139.986 18.0249 142.499 18.0249C145.259 18.0249 146.343 19.9868 146.343 22.4742V22.7545H140.78V22.7633ZM140.85 21.3356H144.077C143.927 20.4072 143.204 19.9255 142.49 19.9255C141.732 19.9255 141.079 20.3897 140.85 21.3356Z" fill="#373EAE"/>
<path d="M147.992 30.4707V18.2088H150.338V19.0234C150.972 18.3577 151.81 18.0249 152.71 18.0249C154.967 18.0249 156.254 20.0656 156.254 22.229C156.254 24.4186 155.02 26.4856 152.727 26.4856C151.775 26.4856 150.884 26.0214 150.249 25.2594V30.4795H147.992V30.4707ZM153.926 22.264C153.926 21.0641 153.327 20.1007 152.101 20.1007C151.017 20.1007 150.294 20.994 150.294 22.2465C150.294 23.3588 151.025 24.4186 152.101 24.4186C153.309 24.4274 153.926 23.4464 153.926 22.264Z" fill="#373EAE"/>
<path d="M160.231 26.3193H157.894V18.2089H160.24V18.7607C160.24 18.9446 160.204 19.2424 160.16 19.5577C160.628 18.6731 161.368 18.0162 162.435 18.0162V20.2934C161.218 20.2934 160.249 20.9941 160.249 22.3167V26.3193H160.231Z" fill="#373EAE"/>
<path d="M165.398 14.1799C166.235 14.1799 166.941 14.8806 166.941 15.7127C166.941 16.5447 166.235 17.2367 165.398 17.2367C164.56 17.2367 163.864 16.536 163.864 15.7127C163.864 14.8719 164.56 14.1799 165.398 14.1799ZM164.181 26.3192V18.2088H166.57V26.3192H164.181Z" fill="#373EAE"/>
<path d="M169.665 23.5954C170.23 24.2435 171.138 24.5063 171.923 24.5063C172.425 24.5063 172.796 24.3048 172.796 24.007C172.796 23.5954 172.381 23.3939 171.693 23.1925C170.424 22.8246 168.854 22.1327 168.854 20.4861C168.854 18.9271 170.38 18.0425 171.746 18.0425C172.981 18.0425 173.854 18.4541 174.585 19.2249L173.28 20.6175C172.928 20.2321 172.275 19.8905 171.79 19.8905C171.358 19.8905 171.041 20.092 171.041 20.4073C171.041 20.8102 171.508 21.0029 172.249 21.2218C173.483 21.5897 175.079 22.3517 175.079 23.8932C175.079 25.4259 173.757 26.4857 171.923 26.4857C170.45 26.4857 169.251 26.074 168.36 25.1194L169.665 23.5954Z" fill="#373EAE"/>
<path d="M178.562 22.7633C178.73 24.1121 179.567 24.6113 180.484 24.6113C181.384 24.6113 182.01 24.1996 182.407 23.6128L183.959 24.7252C183.086 25.89 182.204 26.4856 180.343 26.4856C177.954 26.4856 176.199 24.7427 176.199 22.2465C176.199 19.9343 177.769 18.0249 180.282 18.0249C183.042 18.0249 184.126 19.9868 184.126 22.4742V22.7545H178.562V22.7633ZM178.633 21.3356H181.86C181.71 20.4072 180.987 19.9255 180.273 19.9255C179.515 19.9255 178.862 20.3897 178.633 21.3356Z" fill="#373EAE"/>
<path d="M186.586 23.5954C187.151 24.2435 188.059 24.5063 188.843 24.5063C189.346 24.5063 189.716 24.3048 189.716 24.007C189.716 23.5954 189.302 23.3939 188.614 23.1925C187.345 22.8246 185.775 22.1327 185.775 20.4861C185.775 18.9271 187.3 18.0425 188.667 18.0425C189.902 18.0425 190.775 18.4541 191.506 19.2249L190.201 20.6175C189.849 20.2321 189.196 19.8905 188.711 19.8905C188.279 19.8905 187.962 20.092 187.962 20.4073C187.962 20.8102 188.429 21.0029 189.17 21.2218C190.404 21.5897 192 22.3517 192 23.8932C192 25.4259 190.678 26.4857 188.843 26.4857C187.371 26.4857 186.172 26.074 185.281 25.1194L186.586 23.5954Z" fill="#373EAE"/>
<path d="M56.3083 46.2536V34.6223H63.4328V36.7331H58.6802V39.0629H62.0044V41.1562H58.6802V44.1428H63.4328V46.2536H56.3083Z" fill="#373EAE"/>
<path d="M67.8503 46.2535H65.5049V38.1431H67.8503V38.6949C67.8503 38.8263 67.8327 39.0277 67.7974 39.2554C68.3353 38.4934 69.1553 37.9417 70.2751 37.9417C71.9681 37.9417 73.2378 39.2554 73.2378 41.4275V46.2447H70.8835V41.5589C70.8835 40.4291 70.1605 39.851 69.3757 39.851C68.6703 39.851 67.8856 40.4115 67.8503 41.4976V46.2535Z" fill="#373EAE"/>
<path d="M76.6766 34.1143C77.5142 34.1143 78.2108 34.8149 78.2108 35.6382C78.2108 36.4703 77.5054 37.1622 76.6766 37.1622C75.8389 37.1622 75.1423 36.4615 75.1423 35.6382C75.1423 34.8062 75.8389 34.1143 76.6766 34.1143ZM75.4598 46.2536V38.1432H77.8493V46.2536H75.4598Z" fill="#373EAE"/>
<path d="M85.4411 40.8936C85.0266 40.4469 84.6563 40.1316 83.9862 40.1316C82.9016 40.1316 82.1257 40.9987 82.1257 42.1898C82.1257 43.4335 82.8928 44.213 83.9862 44.213C84.6563 44.213 85.1589 43.8452 85.5116 43.346L87.2663 44.6772C86.4286 45.8071 85.4234 46.4027 83.9862 46.4027C81.5261 46.4027 79.7891 44.5459 79.7891 42.1811C79.7891 39.825 81.5261 37.9595 83.9685 37.9595C85.2559 37.9595 86.2787 38.5113 87.0635 39.3871L85.4411 40.8936Z" fill="#373EAE"/>
<path d="M95.7752 46.2535C94.77 46.2535 94.0823 45.7192 93.7208 44.8784C93.2534 45.6579 92.2659 46.4199 90.811 46.4199C89.0034 46.4199 88.0864 45.255 88.0864 44.0463C88.0864 42.6975 89.1886 41.3925 91.4635 41.3925C92.1513 41.3925 92.8214 41.4713 93.4386 41.5939V41.3312C93.4386 40.5342 92.8831 39.9999 91.9837 39.9999C91.3489 39.9999 90.8286 40.2802 90.4936 40.8144L88.8535 39.6058C88.8535 39.6058 89.7882 37.9417 92.0984 37.9417C94.3733 37.9417 95.7576 39.2905 95.7576 41.2348V43.6785C95.7576 43.9763 95.9604 44.1602 96.2602 44.1602H96.5953V46.271H95.7752V46.2535ZM93.4386 43.0303C93.0066 42.9515 92.4687 42.8639 92.1513 42.8639C91.199 42.8639 90.4583 43.1792 90.4583 43.8449C90.4583 44.2916 90.7934 44.5894 91.4106 44.5894C92.3982 44.5894 93.1388 43.915 93.4386 43.0303Z" fill="#373EAE"/>
<path d="M100.343 46.2535H97.9973V38.1431H100.343V38.6949C100.343 38.8788 100.307 39.1766 100.263 39.4919C100.731 38.6073 101.471 37.9504 102.538 37.9504V40.2277C101.321 40.2277 100.352 40.9283 100.352 42.2509V46.2535H100.343Z" fill="#373EAE"/>
<path d="M104.84 38.152V35.2617H107.185V38.152H108.34V40.3154H107.185V46.2624H104.84V40.3154H103.702V38.152H104.84Z" fill="#373EAE"/>
<path d="M109.98 46.2537V33.7991H112.325V38.7038C112.325 38.8352 112.308 39.0542 112.273 39.2644C112.81 38.5024 113.63 37.9506 114.75 37.9506C116.443 37.9506 117.713 39.2644 117.713 41.4365V46.2537H115.359V41.5679C115.359 40.438 114.636 39.86 113.851 39.86C113.128 39.86 112.431 40.4205 112.325 41.5854V46.2537H109.98Z" fill="#373EAE"/>
<path d="M127.306 46.2535C126.301 46.2535 125.614 45.7192 125.252 44.8784C124.785 45.6579 123.797 46.4199 122.342 46.4199C120.535 46.4199 119.618 45.255 119.618 44.0463C119.618 42.6975 120.72 41.3925 122.995 41.3925C123.683 41.3925 124.353 41.4713 124.97 41.5939V41.3312C124.97 40.5342 124.414 39.9999 123.515 39.9999C122.88 39.9999 122.36 40.2802 122.025 40.8144L120.385 39.6058C120.385 39.6058 121.319 37.9417 123.63 37.9417C125.905 37.9417 127.289 39.2905 127.289 41.2348V43.6785C127.289 43.9763 127.492 44.1602 127.791 44.1602H128.127V46.271H127.306V46.2535ZM124.961 43.0303C124.529 42.9515 123.991 42.8639 123.674 42.8639C122.721 42.8639 121.981 43.1792 121.981 43.8449C121.981 44.2916 122.316 44.5894 122.933 44.5894C123.921 44.5894 124.661 43.915 124.961 43.0303Z" fill="#373EAE"/>
<path d="M134.625 38.2835L135.665 37.1011L137.041 38.3798L136.071 39.3432C136.538 39.9038 136.803 40.6045 136.803 41.3665C136.803 43.3897 135.127 44.7385 133.073 44.7385C132.588 44.7385 132.174 44.6859 131.768 44.5896C131.045 45.1852 130.983 45.9209 132.085 45.9209C132.853 45.9209 133.355 45.6056 134.475 45.6056C138.743 45.6056 138.707 51.5176 133.073 51.5176C128.841 51.5176 127.968 48.7937 129.414 46.9194C128.814 45.991 129.061 44.5633 130.181 43.6962C129.625 43.1182 129.326 42.3211 129.326 41.3665C129.326 39.3432 131.019 37.9769 133.073 37.9769C133.629 37.9857 134.158 38.082 134.625 38.2835ZM130.966 47.8653C130.516 48.7148 131.063 49.5469 133.073 49.5469C136.018 49.5469 135.93 47.5237 134.396 47.5237C133.496 47.5237 132.588 47.9091 131.398 47.9091C131.248 47.9003 131.098 47.8828 130.966 47.8653ZM133.073 42.8291C133.99 42.8291 134.598 42.3124 134.598 41.3665C134.598 40.403 133.999 39.8512 133.073 39.8512C132.138 39.8512 131.539 40.4118 131.539 41.3665C131.53 42.3387 132.182 42.8291 133.073 42.8291Z" fill="#373EAE"/>
<path d="M140.533 42.6978C140.7 44.0466 141.538 44.5459 142.455 44.5459C143.354 44.5459 143.98 44.1342 144.377 43.5474L145.929 44.6597C145.056 45.8246 144.174 46.4202 142.314 46.4202C139.924 46.4202 138.169 44.6772 138.169 42.1811C138.169 39.8688 139.739 37.9595 142.252 37.9595C145.012 37.9595 146.096 39.9214 146.096 42.4088V42.6891H140.533V42.6978ZM140.594 41.2702H143.821C143.672 40.3418 142.948 39.8601 142.234 39.8601C141.485 39.8601 140.832 40.3243 140.594 41.2702Z" fill="#373EAE"/>
</svg>
