<?xml version="1.0" encoding="UTF-8" standalone="no"?><!DOCTYPE svg PUBLIC "-//W3C//DTD SVG 1.1//EN" "http://www.w3.org/Graphics/SVG/1.1/DTD/svg11.dtd"><svg width="100%" height="100%" viewBox="0 0 273 273" version="1.1" xmlns="http://www.w3.org/2000/svg" xmlns:xlink="http://www.w3.org/1999/xlink" xml:space="preserve" xmlns:serif="http://www.serif.com/" style="fill-rule:evenodd;clip-rule:evenodd;stroke-linejoin:round;stroke-miterlimit:2;"><g><rect x="0" y="0" width="272.937" height="272.937" style="fill:none;"/><g><path d="M92.307,97.31l0,172.872l17.525,-8.54l0,-149.843l17.525,0.365l-0,140.939l17.524,-8.65l0,-132.143l17.525,-0.11l0,123.86l17.525,-8.54l-0,-123.677l-87.624,-6.533Z" style="fill:#373eae;fill-rule:nonzero;"/><path d="M208.845,65.415l0,20.254l-144.753,0l-0,-20.254l18.59,0l0,-7.189l14.586,-7.262l-0,14.451l19.398,0l0,-24.086l-19.398,9.635l-0,-12.08l63.081,-36.129l-0,16.861l-29.134,14.488l-0,31.311l29.134,0l-0,-45.799l29.135,14.488l-0,31.311l19.361,0Z" style="fill:#373eae;fill-rule:nonzero;"/></g></g></svg>