<svg width="225" height="69" viewBox="0 0 225 69" fill="none" xmlns="http://www.w3.org/2000/svg">
<mask id="path-1-inside-1_108_2033" fill="white">
<path d="M0 0H225V69H0V0Z"/>
</mask>
<path d="M225 68H0V70H225V68Z" fill="#F2F2F2" mask="url(#path-1-inside-1_108_2033)"/>
<path d="M6.77173 25.1021V66.5911L10.9777 64.5416V28.5792L15.1836 28.6668V62.4921L19.3895 60.4163V28.7018L23.5954 28.6755V58.4019L27.8013 56.3524V26.6698L6.77173 25.1021Z" fill="#373EAE"/>
<path d="M34.7408 17.447V22.308H0V17.447H4.46163V15.7216L7.96216 13.9787V17.447H12.6178V11.6664L7.96216 13.9787V11.0796L23.1017 2.40869V6.45512L16.1095 9.93225V17.447H23.1017V6.45512L30.094 9.93225V17.447H34.7408Z" fill="#373EAE"/>
<path d="M55.9731 28.728V17.0967H62.1277V19.2863H58.345V21.5285H60.9197V23.7181H58.345V28.7192H55.9731V28.728Z" fill="#373EAE"/>
<path d="M62.1982 24.6552C62.1982 22.2466 64.0675 20.4336 66.4659 20.4336C68.8554 20.4336 70.7335 22.2466 70.7335 24.6552C70.7335 27.0638 68.8642 28.8768 66.4659 28.8768C64.0675 28.8768 62.1982 27.0638 62.1982 24.6552ZM68.4322 24.6552C68.4322 23.429 67.6474 22.5094 66.4571 22.5094C65.2491 22.5094 64.4643 23.4202 64.4643 24.6552C64.4643 25.8989 65.2843 26.8185 66.4571 26.8185C67.6474 26.8185 68.4322 25.9077 68.4322 24.6552Z" fill="#373EAE"/>
<path d="M74.7014 28.7279H72.3647V20.6175H74.7102V21.1693C74.7102 21.3532 74.6749 21.651 74.6308 21.9663C75.0982 21.0817 75.8388 20.4248 76.9057 20.4248V22.702C75.6889 22.702 74.719 23.4027 74.719 24.7252V28.7279H74.7014Z" fill="#373EAE"/>
<path d="M86.2258 28.7281H83.8804V28.1763C83.8804 28.0449 83.898 27.8435 83.9333 27.6158C83.3954 28.3777 82.5578 28.9295 81.4556 28.9295C79.7626 28.9295 78.4929 27.6158 78.4929 25.4436V20.6265H80.8472V25.3123C80.8472 26.4421 81.5702 27.0202 82.355 27.0202C83.0604 27.0202 83.8275 26.4684 83.8804 25.3736V20.6265H86.2258V28.7281Z" fill="#373EAE"/>
<path d="M88.3687 28.7281V20.6177H90.7141V21.0294C90.7141 21.1782 90.6788 21.441 90.6436 21.695C91.1285 20.9155 91.9133 20.4163 92.8832 20.4163C94.0735 20.4163 94.7878 20.968 95.1757 21.7476C95.7577 20.968 96.6659 20.4163 97.7681 20.4163C99.4434 20.4163 100.457 21.5461 100.457 23.4905V28.7193H98.1119V23.6657C98.1119 22.7811 97.4771 22.3344 96.8422 22.3344C96.2074 22.3344 95.5725 22.7811 95.5725 23.727V28.7281H93.2271V23.6131C93.2271 22.7811 92.6451 22.3869 92.0191 22.3869C91.3842 22.3869 90.7317 22.8161 90.6965 23.6481V28.7281H88.3687Z" fill="#373EAE"/>
<path d="M107.89 28.728V17.0967H115.015V19.2075H110.262V21.5372H113.586V23.6305H110.262V26.6172H115.015V28.728H107.89Z" fill="#373EAE"/>
<path d="M119.424 28.7281H117.078V20.6177H119.424V21.1695C119.424 21.3009 119.406 21.5023 119.371 21.73C119.909 20.968 120.729 20.4163 121.848 20.4163C123.541 20.4163 124.811 21.73 124.811 23.9021V28.7193H122.457V24.0335C122.457 22.9037 121.734 22.3256 120.949 22.3256C120.244 22.3256 119.459 22.8862 119.424 23.9722V28.7281Z" fill="#373EAE"/>
<path d="M127.588 20.6264V17.7361H129.934V20.6264H131.089V22.7897H129.934V28.7368H127.588V22.7897H126.451V20.6264H127.588Z" fill="#373EAE"/>
<path d="M135.066 28.7279H132.72V20.6175H135.066V21.1693C135.066 21.3532 135.03 21.651 134.986 21.9663C135.454 21.0817 136.194 20.4248 137.261 20.4248V22.702C136.044 22.702 135.074 23.4027 135.074 24.7252V28.7279H135.066Z" fill="#373EAE"/>
<path d="M140.78 25.1719C140.947 26.5208 141.785 27.02 142.702 27.02C143.601 27.02 144.227 26.6083 144.624 26.0215L146.176 27.1339C145.303 28.2987 144.421 28.8943 142.561 28.8943C140.171 28.8943 138.417 27.1514 138.417 24.6552C138.417 22.3429 139.986 20.4336 142.499 20.4336C145.259 20.4336 146.343 22.3955 146.343 24.8829V25.1632H140.78V25.1719ZM140.85 23.7443H144.077C143.927 22.8159 143.204 22.3342 142.49 22.3342C141.732 22.3342 141.079 22.7984 140.85 23.7443Z" fill="#373EAE"/>
<path d="M147.992 32.8794V20.6175H150.338V21.4321C150.972 20.7664 151.81 20.4336 152.71 20.4336C154.967 20.4336 156.254 22.4743 156.254 24.6377C156.254 26.8273 155.02 28.8943 152.727 28.8943C151.775 28.8943 150.884 28.4301 150.249 27.6681V32.8882H147.992V32.8794ZM153.926 24.6727C153.926 23.4728 153.327 22.5094 152.101 22.5094C151.017 22.5094 150.294 23.4027 150.294 24.6552C150.294 25.7675 151.025 26.8273 152.101 26.8273C153.309 26.8361 153.926 25.8551 153.926 24.6727Z" fill="#373EAE"/>
<path d="M160.231 28.7279H157.894V20.6175H160.24V21.1693C160.24 21.3532 160.204 21.651 160.16 21.9663C160.628 21.0817 161.368 20.4248 162.435 20.4248V22.702C161.218 22.702 160.249 23.4027 160.249 24.7252V28.7279H160.231Z" fill="#373EAE"/>
<path d="M165.398 16.5886C166.235 16.5886 166.941 17.2893 166.941 18.1214C166.941 18.9534 166.235 19.6453 165.398 19.6453C164.56 19.6453 163.864 18.9447 163.864 18.1214C163.864 17.2805 164.56 16.5886 165.398 16.5886ZM164.181 28.7279V20.6175H166.57V28.7279H164.181Z" fill="#373EAE"/>
<path d="M169.665 26.0041C170.23 26.6522 171.138 26.915 171.923 26.915C172.425 26.915 172.796 26.7135 172.796 26.4157C172.796 26.0041 172.381 25.8026 171.693 25.6012C170.424 25.2333 168.854 24.5414 168.854 22.8948C168.854 21.3358 170.38 20.4512 171.746 20.4512C172.981 20.4512 173.854 20.8628 174.585 21.6336L173.28 23.0262C172.928 22.6408 172.275 22.2992 171.79 22.2992C171.358 22.2992 171.041 22.5007 171.041 22.816C171.041 23.2189 171.508 23.4115 172.249 23.6305C173.483 23.9984 175.079 24.7604 175.079 26.3019C175.079 27.8346 173.757 28.8944 171.923 28.8944C170.45 28.8944 169.251 28.4827 168.36 27.528L169.665 26.0041Z" fill="#373EAE"/>
<path d="M178.562 25.1719C178.73 26.5208 179.567 27.02 180.484 27.02C181.384 27.02 182.01 26.6083 182.407 26.0215L183.959 27.1339C183.086 28.2987 182.204 28.8943 180.343 28.8943C177.954 28.8943 176.199 27.1514 176.199 24.6552C176.199 22.3429 177.769 20.4336 180.282 20.4336C183.042 20.4336 184.126 22.3955 184.126 24.8829V25.1632H178.562V25.1719ZM178.633 23.7443H181.86C181.71 22.8159 180.987 22.3342 180.273 22.3342C179.515 22.3342 178.862 22.7984 178.633 23.7443Z" fill="#373EAE"/>
<path d="M186.586 26.0041C187.151 26.6522 188.059 26.915 188.843 26.915C189.346 26.915 189.716 26.7135 189.716 26.4157C189.716 26.0041 189.302 25.8026 188.614 25.6012C187.345 25.2333 185.775 24.5414 185.775 22.8948C185.775 21.3358 187.3 20.4512 188.667 20.4512C189.902 20.4512 190.775 20.8628 191.506 21.6336L190.201 23.0262C189.849 22.6408 189.196 22.2992 188.711 22.2992C188.279 22.2992 187.962 22.5007 187.962 22.816C187.962 23.2189 188.429 23.4115 189.17 23.6305C190.404 23.9984 192 24.7604 192 26.3019C192 27.8346 190.678 28.8944 188.843 28.8944C187.371 28.8944 186.172 28.4827 185.281 27.528L186.586 26.0041Z" fill="#373EAE"/>
<path d="M56.3083 48.6623V37.031H63.4328V39.1418H58.6802V41.4716H62.0044V43.5649H58.6802V46.5515H63.4328V48.6623H56.3083Z" fill="#373EAE"/>
<path d="M67.8503 48.6622H65.5049V40.5518H67.8503V41.1036C67.8503 41.2349 67.8327 41.4364 67.7974 41.6641C68.3353 40.9021 69.1553 40.3503 70.2751 40.3503C71.9681 40.3503 73.2378 41.6641 73.2378 43.8362V48.6534H70.8835V43.9676C70.8835 42.8378 70.1605 42.2597 69.3757 42.2597C68.6703 42.2597 67.8856 42.8202 67.8503 43.9063V48.6622Z" fill="#373EAE"/>
<path d="M76.6766 36.5229C77.5142 36.5229 78.2108 37.2236 78.2108 38.0469C78.2108 38.879 77.5054 39.5709 76.6766 39.5709C75.8389 39.5709 75.1423 38.8702 75.1423 38.0469C75.1423 37.2149 75.8389 36.5229 76.6766 36.5229ZM75.4598 48.6622V40.5519H77.8493V48.6622H75.4598Z" fill="#373EAE"/>
<path d="M85.4411 43.3023C85.0266 42.8556 84.6563 42.5403 83.9862 42.5403C82.9016 42.5403 82.1257 43.4074 82.1257 44.5985C82.1257 45.8422 82.8928 46.6217 83.9862 46.6217C84.6563 46.6217 85.1589 46.2539 85.5116 45.7546L87.2663 47.0859C86.4286 48.2158 85.4234 48.8114 83.9862 48.8114C81.5261 48.8114 79.7891 46.9546 79.7891 44.5898C79.7891 42.2337 81.5261 40.3682 83.9685 40.3682C85.2559 40.3682 86.2787 40.9199 87.0635 41.7958L85.4411 43.3023Z" fill="#373EAE"/>
<path d="M95.7752 48.6622C94.77 48.6622 94.0823 48.1279 93.7208 47.2871C93.2534 48.0666 92.2659 48.8286 90.811 48.8286C89.0034 48.8286 88.0864 47.6637 88.0864 46.455C88.0864 45.1062 89.1886 43.8012 91.4635 43.8012C92.1513 43.8012 92.8214 43.88 93.4386 44.0026V43.7399C93.4386 42.9429 92.8831 42.4086 91.9837 42.4086C91.3489 42.4086 90.8286 42.6889 90.4936 43.2231L88.8535 42.0145C88.8535 42.0145 89.7882 40.3503 92.0984 40.3503C94.3733 40.3503 95.7576 41.6991 95.7576 43.6435V46.0872C95.7576 46.385 95.9604 46.5689 96.2602 46.5689H96.5953V48.6797H95.7752V48.6622ZM93.4386 45.439C93.0066 45.3602 92.4687 45.2726 92.1513 45.2726C91.199 45.2726 90.4583 45.5879 90.4583 46.2536C90.4583 46.7003 90.7934 46.9981 91.4106 46.9981C92.3982 46.9981 93.1388 46.3236 93.4386 45.439Z" fill="#373EAE"/>
<path d="M100.343 48.6622H97.9973V40.5518H100.343V41.1036C100.343 41.2875 100.307 41.5853 100.263 41.9006C100.731 41.016 101.471 40.3591 102.538 40.3591V42.6363C101.321 42.6363 100.352 43.337 100.352 44.6596V48.6622H100.343Z" fill="#373EAE"/>
<path d="M104.84 40.5607V37.6704H107.185V40.5607H108.34V42.7241H107.185V48.6711H104.84V42.7241H103.702V40.5607H104.84Z" fill="#373EAE"/>
<path d="M109.98 48.6624V36.2078H112.325V41.1125C112.325 41.2439 112.308 41.4629 112.273 41.6731C112.81 40.9111 113.63 40.3593 114.75 40.3593C116.443 40.3593 117.713 41.6731 117.713 43.8452V48.6624H115.359V43.9766C115.359 42.8467 114.636 42.2687 113.851 42.2687C113.128 42.2687 112.431 42.8292 112.325 43.9941V48.6624H109.98Z" fill="#373EAE"/>
<path d="M127.306 48.6622C126.301 48.6622 125.614 48.1279 125.252 47.2871C124.785 48.0666 123.797 48.8286 122.342 48.8286C120.535 48.8286 119.618 47.6637 119.618 46.455C119.618 45.1062 120.72 43.8012 122.995 43.8012C123.683 43.8012 124.353 43.88 124.97 44.0026V43.7399C124.97 42.9429 124.414 42.4086 123.515 42.4086C122.88 42.4086 122.36 42.6889 122.025 43.2231L120.385 42.0145C120.385 42.0145 121.319 40.3503 123.63 40.3503C125.905 40.3503 127.289 41.6991 127.289 43.6435V46.0872C127.289 46.385 127.492 46.5689 127.791 46.5689H128.127V48.6797H127.306V48.6622ZM124.961 45.439C124.529 45.3602 123.991 45.2726 123.674 45.2726C122.721 45.2726 121.981 45.5879 121.981 46.2536C121.981 46.7003 122.316 46.9981 122.933 46.9981C123.921 46.9981 124.661 46.3236 124.961 45.439Z" fill="#373EAE"/>
<path d="M134.625 40.6922L135.665 39.5098L137.041 40.7885L136.071 41.7519C136.538 42.3125 136.803 43.0132 136.803 43.7752C136.803 45.7984 135.127 47.1472 133.073 47.1472C132.588 47.1472 132.174 47.0946 131.768 46.9983C131.045 47.5939 130.983 48.3296 132.085 48.3296C132.853 48.3296 133.355 48.0143 134.475 48.0143C138.743 48.0143 138.707 53.9263 133.073 53.9263C128.841 53.9263 127.968 51.2024 129.414 49.328C128.814 48.3996 129.061 46.972 130.181 46.1049C129.625 45.5269 129.326 44.7298 129.326 43.7752C129.326 41.7519 131.019 40.3856 133.073 40.3856C133.629 40.3944 134.158 40.4907 134.625 40.6922ZM130.966 50.274C130.516 51.1235 131.063 51.9556 133.073 51.9556C136.018 51.9556 135.93 49.9324 134.396 49.9324C133.496 49.9324 132.588 50.3178 131.398 50.3178C131.248 50.309 131.098 50.2915 130.966 50.274ZM133.073 45.2378C133.99 45.2378 134.598 44.7211 134.598 43.7752C134.598 42.8117 133.999 42.2599 133.073 42.2599C132.138 42.2599 131.539 42.8205 131.539 43.7752C131.53 44.7473 132.182 45.2378 133.073 45.2378Z" fill="#373EAE"/>
<path d="M140.533 45.1065C140.7 46.4553 141.538 46.9546 142.455 46.9546C143.354 46.9546 143.98 46.5429 144.377 45.9561L145.929 47.0684C145.056 48.2333 144.174 48.8289 142.314 48.8289C139.924 48.8289 138.169 47.0859 138.169 44.5898C138.169 42.2775 139.739 40.3682 142.252 40.3682C145.012 40.3682 146.096 42.3301 146.096 44.8175V45.0978H140.533V45.1065ZM140.594 43.6789H143.821C143.672 42.7505 142.948 42.2688 142.234 42.2688C141.485 42.2688 140.832 42.733 140.594 43.6789Z" fill="#373EAE"/>
</svg>
