<svg width="24" height="24" viewBox="0 0 24 24" fill="none" xmlns="http://www.w3.org/2000/svg">
<path d="M12.05 13.375L6.125 19.3C5.925 19.5 5.68734 19.6 5.412 19.6C5.13667 19.6 4.89934 19.5 4.7 19.3C4.5 19.1 4.4 18.8623 4.4 18.587C4.4 18.3117 4.5 18.0743 4.7 17.875L13.6 9H11V10C11 10.2833 10.904 10.521 10.712 10.713C10.52 10.905 10.2827 11.0007 10 11C9.71667 11 9.479 10.904 9.287 10.712C9.095 10.52 8.99934 10.2827 9 10V8C9 7.71667 9.096 7.479 9.288 7.287C9.48 7.095 9.71734 6.99934 10 7H14.85C15.1167 7 15.371 7.05 15.613 7.15C15.855 7.25 16.0673 7.39167 16.25 7.575L19.25 10.55C19.5833 10.8833 19.971 11.1627 20.413 11.388C20.855 11.6133 21.334 11.7757 21.85 11.875C22.1333 11.925 22.3793 12.0543 22.588 12.263C22.7967 12.4717 22.9007 12.7173 22.9 13C22.9 13.2833 22.7833 13.5167 22.55 13.7C22.3167 13.8833 22.0583 13.9583 21.775 13.925C21.025 13.825 20.3333 13.625 19.7 13.325C19.0667 13.025 18.4833 12.6167 17.95 12.1L16.95 11.05L14.75 13.25L16.075 14.575C16.3083 14.8083 16.4043 15.0877 16.363 15.413C16.3217 15.7383 16.159 15.984 15.875 16.15L11.325 18.775C11.0917 18.9083 10.8377 18.9417 10.563 18.875C10.2883 18.8083 10.084 18.6583 9.95 18.425C9.81667 18.1917 9.78767 17.9373 9.863 17.662C9.93834 17.3867 10.0923 17.1827 10.325 17.05L13.75 15.075L12.05 13.375ZM4 13C3.71667 13 3.479 12.904 3.287 12.712C3.095 12.52 2.99934 12.2827 3 12C3 11.7167 3.096 11.479 3.288 11.287C3.48 11.095 3.71734 10.9993 4 11H7C7.28334 11 7.521 11.096 7.713 11.288C7.905 11.48 8.00067 11.7173 8 12C8 12.2833 7.904 12.521 7.712 12.713C7.52 12.905 7.28267 13.0007 7 13H4ZM2 10C1.71667 10 1.479 9.904 1.287 9.712C1.095 9.52 0.999337 9.28267 1 9C1 8.71667 1.096 8.479 1.288 8.287C1.48 8.095 1.71734 7.99934 2 8H5C5.28334 8 5.521 8.096 5.713 8.288C5.905 8.48 6.00067 8.71734 6 9C6 9.28334 5.904 9.521 5.712 9.713C5.52 9.905 5.28267 10.0007 5 10H2ZM19.475 8C18.925 8 18.45 7.804 18.05 7.412C17.65 7.02 17.45 6.54934 17.45 6C17.45 5.45 17.65 4.979 18.05 4.587C18.45 4.195 18.925 3.99934 19.475 4C20.025 4 20.5 4.196 20.9 4.588C21.3 4.98 21.5 5.45067 21.5 6C21.5 6.55 21.3 7.021 20.9 7.413C20.5 7.805 20.025 8.00067 19.475 8ZM4 7C3.71667 7 3.479 6.904 3.287 6.712C3.095 6.52 2.99934 6.28267 3 6C3 5.71667 3.096 5.479 3.288 5.287C3.48 5.095 3.71734 4.99933 4 5H7C7.28334 5 7.521 5.096 7.713 5.288C7.905 5.48 8.00067 5.71733 8 6C8 6.28333 7.904 6.521 7.712 6.713C7.52 6.905 7.28267 7.00067 7 7H4Z" fill="#636E72"/>
</svg>
